<?xml version="1.0" encoding="utf-8"?>
<!-- Generator: Adobe Illustrator 25.0.0, SVG Export Plug-In . SVG Version: 6.00 Build 0)  -->
<svg version="1.1" id="katman_1" xmlns="http://www.w3.org/2000/svg" xmlns:xlink="http://www.w3.org/1999/xlink" x="0px" y="0px"
	 viewBox="0 0 2929.8 1849.7" style="enable-background:new 0 0 2929.8 1849.7;" xml:space="preserve">
<path d="M2586.7,1419.5L2216.3,399.7l-0.3-0.7h-7.3l-76.3,209.6l-138.9,381.5l-0.3-0.3c-48.1-42.5-116-69-201.5-78.9l-26.1-2.7
	l25.9-3.3c141-25.3,235.8-114.4,235.8-221.7c0-147.1-138.4-249.8-336.6-249.8h-412.5v7.4h119.8v760.3L1107,399.7l-0.3-0.7h-7.3
	l-76.3,209.6L729,1416.9l-1.8,0.2c-5,0.6-10,1.1-14.9,1.5c-7.4,0.6-14.8,0.9-22.1,0.9H392.8l565-978.7l4.2-7.4H271v302.8h7.3
	c1.3-147.5,87.2-295.4,276.9-295.4h228.9l-569.3,986h767v-290.1h-7.3c-1,128.5-73.9,250.6-232.3,278.2l-5,0.9l120.7-331.7h338
	l121.8,335.4h-120.2v7.3h471.6v-7.3h-120.7V913.6h139.2c141.7,0,222.9,63.3,222.9,173.6v89.7c0,9.9,0.7,24.3,1.4,36.4v0.4
	l-74.8,205.6h-97.8v7.3h202.4v-7.3h-96.7l68.2-187.2c0.1,1.8,0.2,2.9,0.2,2.9l1.9,16.9l1.8,11.2c11.4,69,37.8,119.8,78.5,150.8
	l5.8,4.2c30.9,21.5,69.3,32.4,114.2,32.4c59.5,0,99.1-14.8,131.9-49.7l-4.3-4c-30.2,27.8-55.5,39.1-87.2,39.1
	c-54,0-82.3-65.6-82.3-130.2v-125.7c0.3-31.2-4.6-62.2-14.5-91.8l-1.3-3.9v-0.1h247.2l121.8,335.4h-120.1v7.3h408.1v-7.3
	L2586.7,1419.5z M860.5,1076.8l166.5-457.5l166.1,457.5H860.5z M1548.5,906.3V440.8h106.3c142,0,216.9,84.4,216.9,244
	c0,169.7-43,221.5-184,221.5L1548.5,906.3z M2055,1076.8l-0.7-1.8c-11-26.8-27-51.2-47.1-71.9l-7-7l-0.7-0.7l136.8-376.1
	l166.1,457.5H2055z"/>
</svg>
